HIERARCHY
ROOT Hips
{
	OFFSET 0.000000 71.427986 0.000000
	CHANNELS 6 Xposition Yposition Zposition Xrotation Yrotation Zrotation
	JOINT Pelvis
	{
		OFFSET 0.000000 0.000000 0.000000
		CHANNELS 3 Xrotation Yrotation Zrotation
		JOINT LeftUpLeg
		{
			OFFSET 6.797100 -2.508499 -1.318700
			CHANNELS 3 Xrotation Yrotation Zrotation
			JOINT LeftLeg
			{
				OFFSET 0.069008 -29.241863 0.690200
				CHANNELS 3 Xrotation Yrotation Zrotation
				JOINT LeftFoot
				{
					OFFSET -0.069008 -29.568123 -0.266800
					CHANNELS 3 Xrotation Yrotation Zrotation
					JOINT LeftToeBase
					{
						OFFSET 3.145500 -8.631000 16.059900
						CHANNELS 3 Xrotation Yrotation Zrotation
						End Site
						{
							OFFSET 0.000000 18.501587 0.000000
						}
					}
				}
			}
			JOINT Left_ShortSleeve
			{
				OFFSET 0.265923 -10.480953 1.153800
				CHANNELS 3 Xrotation Yrotation Zrotation
				End Site
				{
					OFFSET 1.725763 19.823879 0.000000
				}
			}
		}
		JOINT RightUpLeg
		{
			OFFSET -6.797100 -2.508499 -1.318700
			CHANNELS 3 Xrotation Yrotation Zrotation
			JOINT RightLeg
			{
				OFFSET -0.082453 -29.241932 0.688000
				CHANNELS 3 Xrotation Yrotation Zrotation
				JOINT RightFoot
				{
					OFFSET 0.082453 -29.568058 -0.264600
					CHANNELS 3 Xrotation Yrotation Zrotation
					JOINT RightToeBase
					{
						OFFSET -3.115300 -8.682800 16.113400
						CHANNELS 3 Xrotation Yrotation Zrotation
						End Site
						{
							OFFSET 0.000000 18.567114 0.000000
						}
					}
				}
			}
			JOINT Right_ShortSleeve
			{
				OFFSET -0.265923 -10.480953 1.153800
				CHANNELS 3 Xrotation Yrotation Zrotation
				End Site
				{
					OFFSET -1.725766 19.823910 0.000000
				}
			}
		}
	}
	JOINT Spine
	{
		OFFSET 0.000000 13.368103 0.470500
		CHANNELS 3 Xrotation Yrotation Zrotation
		JOINT Spine1
		{
			OFFSET 0.147000 13.837402 0.538800
			CHANNELS 3 Xrotation Yrotation Zrotation
			JOINT Spine2
			{
				OFFSET 0.168000 16.242897 -1.435500
				CHANNELS 3 Xrotation Yrotation Zrotation
				JOINT Neck
				{
					OFFSET 0.217200 18.631500 -1.679100
					CHANNELS 3 Xrotation Yrotation Zrotation
					JOINT Head
					{
						OFFSET 0.000000 6.599396 1.385900
						CHANNELS 3 Xrotation Yrotation Zrotation
						JOINT Hat
						{
							OFFSET -0.532200 27.220596 -10.096100
							CHANNELS 3 Xrotation Yrotation Zrotation
							End Site
							{
								OFFSET 0.000000 22.029861 0.000000
							}
						}
						JOINT HairD
						{
							OFFSET -10.777400 17.437393 -1.325900
							CHANNELS 3 Xrotation Yrotation Zrotation
							JOINT HairD1
							{
								OFFSET -3.290299 -11.051193 1.062200
								CHANNELS 3 Xrotation Yrotation Zrotation
								End Site
								{
									OFFSET 0.000000 11.579437 0.000000
								}
							}
						}
						JOINT HairB
						{
							OFFSET -10.777400 17.437393 1.467900
							CHANNELS 3 Xrotation Yrotation Zrotation
							JOINT HairB1
							{
								OFFSET -1.561200 -12.956299 3.590200
								CHANNELS 3 Xrotation Yrotation Zrotation
								End Site
								{
									OFFSET 0.000000 13.534866 0.000000
								}
							}
						}
						JOINT HairA
						{
							OFFSET 9.713100 17.437393 1.467900
							CHANNELS 3 Xrotation Yrotation Zrotation
							JOINT HairA1
							{
								OFFSET 1.561200 -12.956299 3.590200
								CHANNELS 3 Xrotation Yrotation Zrotation
								End Site
								{
									OFFSET 0.000000 13.534866 0.000000
								}
							}
						}
						JOINT HairC
						{
							OFFSET 9.713100 17.437393 -1.325900
							CHANNELS 3 Xrotation Yrotation Zrotation
							JOINT HairC1
							{
								OFFSET 3.290300 -11.051193 1.062200
								CHANNELS 3 Xrotation Yrotation Zrotation
								End Site
								{
									OFFSET 0.000000 11.579437 0.000000
								}
							}
						}
					}
				}
				JOINT LeftShoulder
				{
					OFFSET 5.101800 15.108002 -2.763700
					CHANNELS 3 Xrotation Yrotation Zrotation
					JOINT LeftArm
					{
						OFFSET 9.825497 2.506317 -1.597400
						CHANNELS 3 Xrotation Yrotation Zrotation
						JOINT LeftForeArm
						{
							OFFSET 21.966244 0.000000 0.000000
							CHANNELS 3 Xrotation Yrotation Zrotation
							JOINT LeftHand
							{
								OFFSET 33.879036 0.000000 0.000000
								CHANNELS 3 Xrotation Yrotation Zrotation
								JOINT LeftHandThumb1
								{
									OFFSET 6.715286 -2.359680 3.363841
									CHANNELS 3 Xrotation Yrotation Zrotation
									JOINT LeftHandThumb2
									{
										OFFSET 2.507072 -1.447464 1.447461
										CHANNELS 3 Xrotation Yrotation Zrotation
										JOINT LeftHandThumb3
										{
											OFFSET 2.898338 -1.673355 1.673357
											CHANNELS 3 Xrotation Yrotation Zrotation
											End Site
											{
												OFFSET -0.295959 3.727692 -0.131651
											}
										}
									}
								}
								JOINT LeftHandIndex1
								{
									OFFSET 14.190811 -0.254547 3.840278
									CHANNELS 3 Xrotation Yrotation Zrotation
									JOINT LeftHandIndex2
									{
										OFFSET 3.551727 0.000000 -0.000000
										CHANNELS 3 Xrotation Yrotation Zrotation
										JOINT LeftHandIndex3
										{
											OFFSET 2.894196 0.000000 0.000000
											CHANNELS 3 Xrotation Yrotation Zrotation
											End Site
											{
												OFFSET -1.000603 2.690872 0.366626
											}
										}
									}
								}
								JOINT LeftHandMiddle1
								{
									OFFSET 13.776489 0.000000 0.000000
									CHANNELS 3 Xrotation Yrotation Zrotation
									JOINT LeftHandMiddle2
									{
										OFFSET 3.438232 0.000000 0.000000
										CHANNELS 3 Xrotation Yrotation Zrotation
										JOINT LeftHandMiddle3
										{
											OFFSET 3.691551 0.000000 0.000000
											CHANNELS 3 Xrotation Yrotation Zrotation
											End Site
											{
												OFFSET -1.082298 3.499527 0.457670
											}
										}
									}
								}
								JOINT LeftHandRing1
								{
									OFFSET 13.966164 -0.268127 -3.067488
									CHANNELS 3 Xrotation Yrotation Zrotation
									JOINT LeftHandRing2
									{
										OFFSET 3.162567 0.000000 0.000000
										CHANNELS 3 Xrotation Yrotation Zrotation
										JOINT LeftHandRing3
										{
											OFFSET 3.324348 0.000000 0.000000
											CHANNELS 3 Xrotation Yrotation Zrotation
											End Site
											{
												OFFSET -0.861900 3.184998 0.405154
											}
										}
									}
								}
								JOINT LeftHandPinky1
								{
									OFFSET 13.131393 -0.168503 -5.746925
									CHANNELS 3 Xrotation Yrotation Zrotation
									JOINT LeftHandPinky2
									{
										OFFSET 2.849182 0.000000 0.000000
										CHANNELS 3 Xrotation Yrotation Zrotation
										JOINT LeftHandPinky3
										{
											OFFSET 2.805038 0.000000 0.000000
											CHANNELS 3 Xrotation Yrotation Zrotation
											End Site
											{
												OFFSET -0.882500 2.642609 0.325652
											}
										}
									}
								}
							}
							JOINT Left_Sleeve
							{
								OFFSET 6.592125 -0.646545 0.805568
								CHANNELS 3 Xrotation Yrotation Zrotation
								End Site
								{
									OFFSET -0.000179 20.275787 -0.000000
								}
							}
						}
					}
				}
				JOINT RightShoulder
				{
					OFFSET -5.731700 15.108002 -2.763700
					CHANNELS 3 Xrotation Yrotation Zrotation
					JOINT RightArm
					{
						OFFSET -9.825497 2.506317 -1.597400
						CHANNELS 3 Xrotation Yrotation Zrotation
						JOINT RightForeArm
						{
							OFFSET -21.966242 0.000000 0.000000
							CHANNELS 3 Xrotation Yrotation Zrotation
							JOINT RightHand
							{
								OFFSET -33.879032 0.000000 0.000000
								CHANNELS 3 Xrotation Yrotation Zrotation
								JOINT RightHandThumb1
								{
									OFFSET -6.715286 -2.359680 3.363841
									CHANNELS 3 Xrotation Yrotation Zrotation
									JOINT RightHandThumb2
									{
										OFFSET -2.507072 -1.447464 1.447461
										CHANNELS 3 Xrotation Yrotation Zrotation
										JOINT RightHandThumb3
										{
											OFFSET -2.898338 -1.673355 1.673357
											CHANNELS 3 Xrotation Yrotation Zrotation
											End Site
											{
												OFFSET 0.295959 3.727692 -0.131651
											}
										}
									}
								}
								JOINT RightHandIndex1
								{
									OFFSET -14.190811 -0.254547 3.840278
									CHANNELS 3 Xrotation Yrotation Zrotation
									JOINT RightHandIndex2
									{
										OFFSET -3.551727 0.000000 -0.000000
										CHANNELS 3 Xrotation Yrotation Zrotation
										JOINT RightHandIndex3
										{
											OFFSET -2.894196 0.000000 0.000000
											CHANNELS 3 Xrotation Yrotation Zrotation
											End Site
											{
												OFFSET 1.000603 2.690872 0.366626
											}
										}
									}
								}
								JOINT RightHandMiddle1
								{
									OFFSET -13.776489 0.000000 0.000000
									CHANNELS 3 Xrotation Yrotation Zrotation
									JOINT RightHandMiddle2
									{
										OFFSET -3.438232 0.000000 0.000000
										CHANNELS 3 Xrotation Yrotation Zrotation
										JOINT RightHandMiddle3
										{
											OFFSET -3.691551 0.000000 0.000000
											CHANNELS 3 Xrotation Yrotation Zrotation
											End Site
											{
												OFFSET 1.082298 3.499527 0.457670
											}
										}
									}
								}
								JOINT RightHandRing1
								{
									OFFSET -13.966164 -0.268127 -3.067488
									CHANNELS 3 Xrotation Yrotation Zrotation
									JOINT RightHandRing2
									{
										OFFSET -3.162567 0.000000 0.000000
										CHANNELS 3 Xrotation Yrotation Zrotation
										JOINT RightHandRing3
										{
											OFFSET -3.324348 0.000000 0.000000
											CHANNELS 3 Xrotation Yrotation Zrotation
											End Site
											{
												OFFSET 0.861900 3.184998 0.405154
											}
										}
									}
								}
								JOINT RightHandPinky1
								{
									OFFSET -13.131393 -0.168503 -5.746925
									CHANNELS 3 Xrotation Yrotation Zrotation
									JOINT RightHandPinky2
									{
										OFFSET -2.849182 0.000000 0.000000
										CHANNELS 3 Xrotation Yrotation Zrotation
										JOINT RightHandPinky3
										{
											OFFSET -2.805038 0.000000 0.000000
											CHANNELS 3 Xrotation Yrotation Zrotation
											End Site
											{
												OFFSET 0.882500 2.642609 0.325652
											}
										}
									}
								}
							}
							JOINT Right_Sleeve
							{
								OFFSET -6.592125 -0.646545 0.805568
								CHANNELS 3 Xrotation Yrotation Zrotation
								End Site
								{
									OFFSET 0.000179 20.275787 -0.000000
								}
							}
						}
					}
				}
				JOINT Bind_Right_JacketString
				{
					OFFSET -3.534800 11.969597 7.200700
					CHANNELS 3 Xrotation Yrotation Zrotation
					JOINT Bind_Right_JacketString1
					{
						OFFSET -0.319900 -6.102600 2.794100
						CHANNELS 3 Xrotation Yrotation Zrotation
						End Site
						{
							OFFSET 0.000000 6.719452 0.000000
						}
					}
				}
				JOINT Bind_Left_JacketString
				{
					OFFSET 2.904800 11.969597 7.200700
					CHANNELS 3 Xrotation Yrotation Zrotation
					JOINT Bind_Left_JacketString1
					{
						OFFSET 0.364800 -5.904503 3.186800
						CHANNELS 3 Xrotation Yrotation Zrotation
						End Site
						{
							OFFSET 0.000000 6.719513 0.000000
						}
					}
				}
				JOINT HairE
				{
					OFFSET 5.915200 17.612701 -11.592200
					CHANNELS 3 Xrotation Yrotation Zrotation
					JOINT HairE1
					{
						OFFSET 0.289200 -7.171898 -1.284500
						CHANNELS 3 Xrotation Yrotation Zrotation
						End Site
						{
							OFFSET 0.000000 7.291756 0.000000
						}
					}
				}
				JOINT HairF
				{
					OFFSET -0.864800 17.612701 -11.592200
					CHANNELS 3 Xrotation Yrotation Zrotation
					JOINT HairF1
					{
						OFFSET 0.000000 -14.087097 -2.127501
						CHANNELS 3 Xrotation Yrotation Zrotation
						End Site
						{
							OFFSET 0.000000 14.246841 0.000000
						}
					}
				}
				JOINT HairG
				{
					OFFSET -8.087700 17.612701 -11.592200
					CHANNELS 3 Xrotation Yrotation Zrotation
					JOINT HairG1
					{
						OFFSET -0.293600 -6.081398 -0.910100
						CHANNELS 3 Xrotation Yrotation Zrotation
						End Site
						{
							OFFSET 0.000000 6.156120 0.000000
						}
					}
				}
			}
		}
	}
	JOINT Pouch
	{
		OFFSET 0.000000 4.394501 10.847300
		CHANNELS 3 Xrotation Yrotation Zrotation
		End Site
		{
			OFFSET 0.000000 21.880577 0.000000
		}
	}
	JOINT Bag
	{
		OFFSET -13.229000 4.813004 -0.593300
		CHANNELS 3 Xrotation Yrotation Zrotation
		End Site
		{
			OFFSET 0.000000 21.880577 0.000000
		}
	}
	JOINT OccupyGuyFacialAnim_Joint
	{
		OFFSET 1.000000 -70.206398 -1.655000
		CHANNELS 3 Xrotation Yrotation Zrotation
		End Site
		{
			OFFSET 0.000000 21.880577 0.000000
		}
	}
}
MOTION
Frames: 4
Frame Time: 0.033333
-1.145373 68.518478 138.206360 53.714250 -47.521448 -176.234686 -0.000001 0.000001 -0.000000 -16.984116 6.120915 -11.800719 32.959867 -1.943208 0.421350 -4.114341 1.643680 -15.147647 0.000000 0.000001 -0.000001 0.000002 0.000001 -0.000002 -101.235493 25.151852 -35.688398 17.189231 1.836007 0.125275 -20.421070 -0.626137 0.654232 -0.000001 0.000000 -0.000000 0.000000 0.000000 0.000002 6.294244 3.307409 9.973886 0.360847 1.170244 6.865709 0.358405 1.254700 6.850004 -13.624950 -2.787356 3.220227 -21.260139 -13.818022 -1.926627 -0.000000 -0.000001 -0.000003 -0.000000 -0.000001 -0.000003 -0.000000 -0.000001 -0.000002 -0.000000 -0.000001 -0.000002 -0.000000 0.000002 0.000001 -0.000000 -0.000001 -0.000002 -0.000000 0.000002 0.000001 -0.000000 -0.000001 -0.000003 -0.000000 -0.000001 -0.000003 5.412185 -23.256492 17.602823 -14.742311 -34.294964 67.641624 0.000000 -3.963253 -0.000003 23.465663 -38.809832 78.432777 -8.086114 -13.171365 2.090424 4.167189 5.662672 14.100580 0.000001 0.000004 0.000001 -4.412458 -7.815862 -22.414343 0.000002 0.000004 -0.000001 0.000001 0.000005 -0.000001 -0.345004 2.383851 -21.092398 0.000004 -0.000003 -0.000007 0.000003 -0.000001 -0.000001 3.020811 11.189673 -20.524157 -0.000001 0.000003 -0.000009 -0.000001 -0.000001 0.000001 3.902692 22.586245 -20.403838 -0.000001 0.000002 -0.000025 0.000001 0.000000 0.000001 -0.000000 0.000001 -0.000001 4.125144 20.922000 -17.864792 -58.859012 27.689085 8.936559 0.000090 62.355857 -0.000105 42.908717 -40.965948 -80.398601 -8.975058 15.257123 -1.504364 4.692967 -7.585174 -14.981651 0.000000 -0.000001 0.000002 -4.369310 8.461720 21.515053 -0.000000 -0.000009 0.000025 -0.000002 0.000001 -0.000001 -0.435575 -1.812689 20.387283 -0.000001 -0.000011 0.000012 0.000001 0.000000 -0.000001 2.835450 -10.670859 19.973736 0.000005 0.000001 0.000002 0.000002 0.000001 -0.000002 3.622876 -22.078122 20.048514 -0.000001 -0.000006 -0.000002 -0.000000 0.000001 -0.000001 -0.000001 0.000003 -0.000002 0.000001 0.000001 0.000000 0.000001 -0.000002 0.000000 0.000001 0.000001 0.000002 0.000001 0.000001 0.000002 0.000001 0.000001 0.000000 0.000001 -0.000002 0.000000 0.000001 0.000001 0.000002 0.000001 0.000001 0.000002 0.000001 0.000001 0.000000 0.000001 -0.000002 0.000000 -0.000001 0.000001 -0.000000 -0.000001 0.000001 -0.000000 -0.000001 0.000001 -0.000000 
-1.292100 66.076706 145.268158 61.718990 -43.633543 -180.232149 -0.000000 0.000000 0.000001 -22.001750 6.704402 -11.623807 35.639753 1.183343 0.436140 -6.009088 2.201742 -16.565797 -0.000001 -0.000001 0.000000 -0.000000 0.000001 -0.000000 -105.326906 23.800332 -29.686119 28.479966 1.203931 0.232680 -28.676341 2.156237 -11.055460 0.000000 -0.000001 0.000000 -0.000000 0.000000 -0.000001 7.023223 3.341389 10.703007 1.088383 1.222850 7.200476 1.085799 1.306058 7.184930 -12.557612 -3.135636 3.939386 -19.233417 -14.717418 -0.622638 -0.000000 0.000000 0.000002 -0.000000 0.000000 0.000002 -0.000000 0.000000 0.000003 -0.000000 0.000000 0.000002 -0.000000 0.000001 0.000001 -0.000000 0.000000 0.000002 -0.000000 0.000001 0.000001 -0.000000 0.000000 0.000002 -0.000000 0.000000 0.000002 6.554935 -24.243278 21.661911 -12.530448 -21.983539 67.130822 0.000006 -10.558090 0.000004 5.494234 -30.024839 61.460590 -8.086585 -13.172728 2.089868 4.166949 5.661383 14.101495 -0.000000 0.000005 -0.000000 -4.412793 -7.816681 -22.414485 -0.000001 0.000002 -0.000002 0.000001 -0.000001 -0.000004 -0.345004 2.383855 -21.092391 -0.000001 -0.000001 -0.000013 -0.000000 0.000000 0.000001 3.021086 11.190384 -20.524140 -0.000003 0.000001 0.000009 0.000001 -0.000000 -0.000000 3.903306 22.587779 -20.403911 -0.000005 -0.000002 0.000008 -0.000000 -0.000001 0.000003 0.000001 0.000005 -0.000000 4.563831 22.003680 -18.645692 -57.400869 21.338853 9.528838 -0.000011 64.610420 0.000016 34.811876 -44.079196 -82.555813 -8.974681 15.256023 -1.504810 4.693136 -7.586151 -14.980912 -0.000001 0.000002 0.000001 -4.369049 8.461083 21.514952 -0.000003 -0.000252 0.002947 -0.000002 -0.000001 0.000000 -0.435578 -1.812689 20.387281 0.000000 -0.000218 0.002490 -0.000000 -0.000001 -0.000001 2.835245 -10.670314 19.973748 0.000002 -0.000248 0.003087 -0.000000 0.000002 -0.000004 3.622400 -22.076915 20.048441 0.000002 -0.000228 0.002896 -0.000001 0.000000 -0.000003 0.000000 0.000003 -0.000003 -0.000003 0.000002 0.000001 -0.000002 -0.000002 0.000002 -0.000003 0.000002 -0.000000 -0.000003 0.000002 -0.000000 -0.000003 0.000002 0.000001 -0.000002 -0.000002 0.000003 -0.000003 0.000002 -0.000000 -0.000003 0.000002 -0.000000 -0.000003 0.000002 0.000001 -0.000002 -0.000002 0.000003 -0.000000 0.000000 0.000001 -0.000000 0.000000 0.000001 -0.000000 0.000000 0.000001 
-1.158883 63.596226 152.128036 69.219548 -40.447526 -184.044802 0.000001 0.000000 -0.000001 -28.043729 7.408377 -11.176998 37.647009 6.633229 0.322391 -9.799943 4.606666 -15.919731 0.000001 -0.000002 0.000000 -0.000000 -0.000001 -0.000002 -113.960648 23.576930 -22.153536 48.984426 0.305226 0.221665 -32.709516 3.675432 -14.287817 0.000000 -0.000000 0.000000 -0.000001 -0.000000 0.000001 7.875670 3.191825 11.535538 1.601544 1.090570 6.996121 1.597738 1.168687 6.983170 -11.724911 -3.142493 3.663141 -17.161135 -15.032896 -0.117244 0.000001 0.000001 0.000002 0.000001 0.000001 0.000002 0.000001 0.000001 0.000004 0.000001 0.000001 0.000004 -0.000001 0.000000 0.000002 0.000001 0.000001 0.000004 -0.000001 0.000000 0.000002 0.000001 0.000001 0.000002 0.000001 0.000001 0.000002 6.359990 -23.403433 22.110553 -11.745863 -12.623719 65.120362 -0.000003 -16.760714 0.000012 -5.636909 -17.048256 49.269669 -8.082994 -13.162431 2.094142 4.168739 5.671048 14.094580 0.000000 0.000001 -0.000002 -4.410239 -7.810549 -22.413442 0.000001 0.002326 -0.022710 0.000002 0.000000 0.000005 -0.345005 2.383853 -21.092379 0.000001 0.001967 -0.019206 -0.000000 -0.000000 -0.000003 3.019047 11.185052 -20.524322 0.000003 0.002450 -0.023861 -0.000001 -0.000001 -0.000005 3.898669 22.576268 -20.403378 0.000010 0.002296 -0.022323 -0.000001 -0.000001 0.000003 -0.000000 -0.000002 0.000000 5.013886 22.587782 -19.366052 -56.634737 21.478240 10.730786 0.000010 56.162030 -0.000017 25.061323 -41.218904 -84.837165 -8.974650 15.255969 -1.504841 4.693146 -7.586254 -14.980852 -0.000000 0.000000 0.000003 -4.369030 8.461022 21.514954 0.000002 -0.000254 0.003162 0.000000 -0.000001 0.000000 -0.435572 -1.812704 20.387283 0.000001 -0.000201 0.002677 0.000001 -0.000002 -0.000001 2.835232 -10.670263 19.973756 0.000000 -0.000266 0.003327 -0.000000 -0.000003 -0.000001 3.622360 -22.076817 20.048434 0.000003 -0.000257 0.003112 -0.000000 0.000000 0.000001 0.000000 0.000003 0.000000 -0.000000 0.000001 0.000001 -0.000000 -0.000003 -0.000000 -0.000000 0.000001 -0.000000 -0.000000 0.000001 -0.000000 -0.000000 0.000001 0.000001 -0.000000 -0.000003 -0.000000 -0.000000 0.000001 -0.000000 -0.000000 0.000001 -0.000000 -0.000000 0.000001 0.000001 -0.000000 -0.000003 -0.000000 0.000001 0.000000 -0.000001 0.000001 0.000000 -0.000001 0.000001 0.000000 -0.000001 
-0.678463 62.168915 158.584717 75.236965 -38.411078 -188.065010 -0.000000 -0.000002 0.000000 -35.349313 8.014532 -11.343078 38.421969 6.808155 0.570170 -13.710454 8.742633 -13.443685 0.000001 0.000002 0.000001 0.000002 0.000001 0.000001 -118.147492 21.786985 -17.707677 58.098532 -2.774437 0.070581 -31.557410 3.474579 -13.472945 -0.000000 -0.000000 0.000000 -0.000001 0.000000 -0.000002 9.009053 2.948232 12.470989 2.032897 0.785966 6.616868 2.026031 0.859167 6.609541 -11.201947 -2.798552 2.547225 -15.820482 -14.601519 -0.943193 -0.000000 0.000000 -0.000001 -0.000000 0.000000 -0.000001 -0.000000 0.000000 -0.000001 -0.000000 0.000000 -0.000001 -0.000000 -0.000001 -0.000001 -0.000000 0.000000 -0.000001 -0.000000 -0.000001 -0.000001 -0.000000 0.000000 -0.000001 -0.000000 0.000000 -0.000001 4.830796 -20.668185 18.490227 -10.474420 -9.922307 64.303362 0.000002 -17.082482 -0.000009 -13.802467 -9.698162 42.200368 -8.070376 -13.126235 2.109174 4.175047 5.705035 14.070296 0.000001 0.000003 -0.000001 -4.401268 -7.789010 -22.409839 0.000020 0.013382 -0.130582 0.000000 0.000000 -0.000002 -0.344993 2.383853 -21.092393 0.000022 0.011323 -0.110465 0.000001 0.000003 0.000001 3.011908 11.166331 -20.524983 0.000018 0.014063 -0.137367 -0.000001 0.000004 -0.000004 3.882405 22.535842 -20.401574 0.000009 0.013146 -0.128412 -0.000001 0.000000 -0.000002 0.000001 0.000000 -0.000000 5.235977 23.087865 -19.158069 -56.910079 29.652341 10.839243 -0.000001 35.064706 0.000001 16.461290 -30.512525 -86.293027 -8.975561 15.258547 -1.503780 4.692748 -7.583837 -14.982623 0.000000 -0.000000 0.000003 -4.369649 8.462574 21.515176 0.000005 0.000005 0.000040 -0.000000 -0.000002 0.000002 -0.435578 -1.812684 20.387278 -0.000003 -0.000007 0.000007 0.000000 -0.000001 0.000003 2.835727 -10.671609 19.973725 0.000000 -0.000013 0.000017 0.000000 -0.000004 -0.000003 3.623500 -22.079724 20.048601 0.000001 0.000007 0.000007 -0.000000 0.000002 0.000001 -0.000000 -0.000002 -0.000002 -0.000001 -0.000001 -0.000001 -0.000001 0.000003 0.000001 -0.000001 -0.000001 -0.000001 -0.000001 -0.000001 -0.000001 -0.000001 -0.000001 -0.000001 -0.000001 0.000003 0.000001 -0.000001 -0.000001 -0.000001 -0.000001 -0.000001 -0.000001 -0.000001 -0.000001 -0.000001 -0.000001 0.000003 0.000001 -0.000000 -0.000002 0.000000 -0.000000 -0.000002 0.000000 -0.000000 -0.000002 0.000000 
